<svg  viewBox="0 0 9 18" fill="none" xmlns="http://www.w3.org/2000/svg">
<path d="M7.13505 17.1667C6.96075 17.1673 6.78854 17.1288 6.63107 17.0541C6.47359 16.9794 6.33485 16.8704 6.22505 16.735L0.590049 9.73501C0.418453 9.52625 0.324646 9.2644 0.324646 8.99417C0.324646 8.72394 0.418453 8.46209 0.590049 8.25334L6.42338 1.25334C6.62141 1.01509 6.90597 0.865258 7.21447 0.836815C7.52297 0.808372 7.83013 0.903645 8.06838 1.10167C8.30663 1.2997 8.45646 1.58426 8.48491 1.89276C8.51335 2.20126 8.41808 2.50842 8.22005 2.74667L3.00505 9.00001L8.04505 15.2533C8.18771 15.4246 8.27833 15.6331 8.30619 15.8543C8.33405 16.0754 8.29798 16.2999 8.20225 16.5012C8.10652 16.7025 7.95513 16.8721 7.76601 16.99C7.57688 17.108 7.35792 17.1693 7.13505 17.1667Z" fill="black" fill-opacity="0.4"/>
</svg>
