<svg width="24" height="23" viewBox="0 0 24 23" fill="none" xmlns="http://www.w3.org/2000/svg">
<path fill-rule="evenodd" clip-rule="evenodd" d="M9.22698 22.1448C10.2461 22.1448 11.0724 21.3186 11.0724 20.2994C11.0724 19.2803 10.2461 18.454 9.22698 18.454C8.20779 18.454 7.38158 19.2803 7.38158 20.2994C7.38158 21.3186 8.20779 22.1448 9.22698 22.1448ZM19.0691 22.1448C20.0883 22.1448 20.9145 21.3186 20.9145 20.2994C20.9145 19.2803 20.0883 18.454 19.0691 18.454C18.05 18.454 17.2237 19.2803 17.2237 20.2994C17.2237 21.3186 18.05 22.1448 19.0691 22.1448Z" fill="#D6D6D6"/>
<path d="M1.23027 0C0.550815 0 0 0.550815 0 1.23027C0 1.90972 0.550815 2.46053 1.23027 2.46053H1.76968C2.3342 2.46053 2.82629 2.84474 2.96321 3.39241L5.72212 14.4281C6.13288 16.0711 7.60913 17.2237 9.30272 17.2237H18.9408C20.6707 17.2237 22.1684 16.0222 22.5436 14.3336L23.9106 8.18224C24.4229 5.87729 22.6689 3.6908 20.3078 3.6908H5.57406L5.35028 2.79564C4.93952 1.15262 3.46326 0 1.76968 0H1.23027Z" fill="#D6D6D6"/>
</svg>
