<svg width="19" height="23" viewBox="0 0 19 23" fill="none" xmlns="http://www.w3.org/2000/svg">
<path d="M7.22355 19.2547C7.78228 19.1365 11.1868 19.1365 11.7456 19.2547C12.2232 19.365 12.7397 19.6228 12.7397 20.1856C12.7119 20.7214 12.3976 21.1965 11.9633 21.4981C11.4001 21.9372 10.7392 22.2152 10.0483 22.3154C9.66617 22.3649 9.29073 22.366 8.92195 22.3154C8.22993 22.2152 7.56901 21.9372 7.00695 21.497C6.57152 21.1965 6.25717 20.7214 6.2294 20.1856C6.2294 19.6228 6.74592 19.365 7.22355 19.2547ZM9.55054 0C11.8754 0 14.2503 1.10314 15.661 2.93345C16.5763 4.11201 16.9961 5.28944 16.9961 7.11975V7.5959C16.9961 8.99959 17.3671 9.82694 18.1836 10.7804C18.8023 11.4828 19 12.3844 19 13.3626C19 14.3397 18.679 15.2672 18.0358 16.0203C17.1939 16.923 16.0064 17.4994 14.7946 17.5996C13.0384 17.7493 11.2811 17.8754 9.50056 17.8754C7.71885 17.8754 5.9627 17.7999 4.20655 17.5996C2.99357 17.4994 1.80614 16.923 0.965273 16.0203C0.322128 15.2672 0 14.3397 0 13.3626C0 12.3844 0.198831 11.4828 0.816428 10.7804C1.6584 9.82694 2.00497 8.99959 2.00497 7.5959V7.11975C2.00497 5.23991 2.47372 4.0107 3.43899 2.80738C4.87413 1.05248 7.17457 0 9.45057 0H9.55054Z" fill="#D6D6D6"/>
</svg>
